<svg xmlns="http://www.w3.org/2000/svg" viewBox="0 0 800 980" font-family="Arial, Helvetica, sans-serif">
  <rect width="800" height="980" fill="#ffffff"/>

  <!-- Encabezado del expediente -->
  <rect x="30" y="30" width="740" height="110" rx="8" fill="#f5f5f5" stroke="#999999"/>
  <text x="50" y="60" font-size="13" fill="#666666" font-family="monospace">ADQ-2026-00123</text>
  <text x="50" y="86" font-size="19" fill="#222222" font-weight="bold">[Nombre / glosa de la compra]</text>
  <text x="50" y="110" font-size="13" fill="#555555">Modalidad: Compra Ágil · Unidad de origen: [Unidad Solicitante]</text>
  <rect x="580" y="45" width="170" height="30" rx="15" fill="#dddddd" stroke="#999999"/>
  <text x="665" y="65" font-size="13" fill="#333333" text-anchor="middle">En curso — paso 3 de 5</text>

  <!-- Línea vertical del timeline -->
  <line x1="70" y1="180" x2="70" y2="920" stroke="#bbbbbb" stroke-width="3"/>

  <!-- PASO 1 -->
  <circle cx="70" cy="210" r="18" fill="#555555"/>
  <text x="70" y="216" font-size="14" fill="#ffffff" text-anchor="middle">1</text>
  <rect x="110" y="180" width="660" height="120" rx="8" fill="#ffffff" stroke="#999999"/>
  <text x="130" y="208" font-size="16" fill="#222222" font-weight="bold">SOLPED</text>
  <rect x="640" y="192" width="110" height="24" rx="12" fill="#e8e8e8" stroke="#888888"/>
  <text x="695" y="209" font-size="12" fill="#333333" text-anchor="middle">Finalizada</text>
  <text x="130" y="232" font-size="13" fill="#555555">Responsable: Unidad Solicitante → DAF Finanzas</text>
  <text x="130" y="252" font-size="12" fill="#888888">Tiempo transcurrido: [N días N h] · Última modificación: [fecha]</text>
  <rect x="130" y="264" width="110" height="26" rx="4" fill="#ffffff" stroke="#777777"/>
  <text x="185" y="281" font-size="12" fill="#333333" text-anchor="middle">Ver solicitud</text>
  <rect x="250" y="264" width="140" height="26" rx="4" fill="#ffffff" stroke="#777777"/>
  <text x="320" y="281" font-size="12" fill="#333333" text-anchor="middle">Ver pre-afectación</text>

  <!-- PASO 2 -->
  <circle cx="70" cy="350" r="18" fill="#555555"/>
  <text x="70" y="356" font-size="14" fill="#ffffff" text-anchor="middle">2</text>
  <rect x="110" y="320" width="660" height="105" rx="8" fill="#ffffff" stroke="#999999"/>
  <text x="130" y="348" font-size="16" fill="#222222" font-weight="bold">Cotización en Mercado Público</text>
  <rect x="640" y="332" width="110" height="24" rx="12" fill="#e8e8e8" stroke="#888888"/>
  <text x="695" y="349" font-size="12" fill="#333333" text-anchor="middle">Finalizada</text>
  <text x="130" y="372" font-size="13" fill="#555555">Responsable: DAF Abastecimiento · ID MP: [id sincronizado]</text>
  <text x="130" y="392" font-size="12" fill="#888888">Tiempo transcurrido: [N días N h] · Última modificación: [fecha]</text>
  <text x="130" y="412" font-size="12" fill="#888888">Acciones en MP vía deep link (sin escritura API)</text>

  <!-- PASO 3 (en curso) -->
  <circle cx="70" cy="490" r="18" fill="#ffffff" stroke="#333333" stroke-width="3"/>
  <text x="70" y="496" font-size="14" fill="#333333" text-anchor="middle">3</text>
  <rect x="110" y="460" width="660" height="135" rx="8" fill="#fafafa" stroke="#333333" stroke-width="2"/>
  <text x="130" y="488" font-size="16" fill="#222222" font-weight="bold">Aceptación de OC y Compromiso Cierto</text>
  <rect x="640" y="472" width="110" height="24" rx="12" fill="#cccccc" stroke="#555555"/>
  <text x="695" y="489" font-size="12" fill="#222222" text-anchor="middle">En curso</text>
  <text x="130" y="512" font-size="13" fill="#555555">Responsable: Proveedor (MP) → Contabilidad/Tesorería (automático)</text>
  <text x="130" y="532" font-size="12" fill="#888888">Tiempo transcurrido: [N días N h]</text>
  <text x="130" y="556" font-size="12" fill="#555555">Condición pendiente: lectura API "OC Aceptada" → gatilla Compromiso Cierto</text>
  <rect x="130" y="566" width="80" height="24" rx="4" fill="#ffffff" stroke="#777777"/>
  <text x="170" y="582" font-size="12" fill="#333333" text-anchor="middle">Ver OC</text>

  <!-- PASO 4 (pendiente) -->
  <circle cx="70" cy="660" r="18" fill="#ffffff" stroke="#bbbbbb" stroke-width="2"/>
  <text x="70" y="666" font-size="14" fill="#aaaaaa" text-anchor="middle">4</text>
  <rect x="110" y="630" width="660" height="85" rx="8" fill="#ffffff" stroke="#cccccc" stroke-dasharray="5 4"/>
  <text x="130" y="658" font-size="16" fill="#999999" font-weight="bold">Recepción Conforme</text>
  <rect x="640" y="642" width="110" height="24" rx="12" fill="#ffffff" stroke="#bbbbbb"/>
  <text x="695" y="659" font-size="12" fill="#999999" text-anchor="middle">Pendiente</text>
  <text x="130" y="682" font-size="13" fill="#aaaaaa">Responsable: Unidad Solicitante</text>

  <!-- PASO 5 (pendiente) -->
  <circle cx="70" cy="780" r="18" fill="#ffffff" stroke="#bbbbbb" stroke-width="2"/>
  <text x="70" y="786" font-size="14" fill="#aaaaaa" text-anchor="middle">5</text>
  <rect x="110" y="750" width="660" height="85" rx="8" fill="#ffffff" stroke="#cccccc" stroke-dasharray="5 4"/>
  <text x="130" y="778" font-size="16" fill="#999999" font-weight="bold">Pago</text>
  <rect x="640" y="762" width="110" height="24" rx="12" fill="#ffffff" stroke="#bbbbbb"/>
  <text x="695" y="779" font-size="12" fill="#999999" text-anchor="middle">Pendiente</text>
  <text x="130" y="802" font-size="13" fill="#aaaaaa">Responsable: Contabilidad/Tesorería · Plazo legal: 30 días desde factura</text>

  <!-- Nota al pie -->
  <text x="30" y="920" font-size="12" fill="#888888">Wireframe de baja fidelidad — estructura y comportamiento, sin diseño visual.</text>
  <text x="30" y="940" font-size="12" fill="#888888">Los pasos se instancian según la modalidad del expediente (Compra Ágil: 5 · Convenio Marco: 4 · Licitación: 6 · Trato Directo: 5).</text>
  <text x="30" y="960" font-size="12" fill="#888888">Ver anotación en 00-vista-expediente.md</text>
</svg>
